<?xml version="1.0" encoding="UTF-8" standalone="no"?>
<svg
   id="visual"
   viewBox="0 0 900 600"
   width="900"
   height="600"
   version="1.1"
   sodipodi:docname="spacer yellow.svg"
   inkscape:version="1.1 (c68e22c387, 2021-05-23)"
   xmlns:inkscape="http://www.inkscape.org/namespaces/inkscape"
   xmlns:sodipodi="http://sodipodi.sourceforge.net/DTD/sodipodi-0.dtd"
   xmlns="http://www.w3.org/2000/svg"
   xmlns:svg="http://www.w3.org/2000/svg">
  <sodipodi:namedview
     id="namedview5"
     pagecolor="#505050"
     bordercolor="#eeeeee"
     borderopacity="1"
     inkscape:pageshadow="0"
     inkscape:pageopacity="0"
     inkscape:pagecheckerboard="0"
     showgrid="false"
     inkscape:zoom="2"
     inkscape:cx="698.75"
     inkscape:cy="599.5"
     inkscape:window-width="1920"
     inkscape:window-height="974"
     inkscape:window-x="-11"
     inkscape:window-y="-11"
     inkscape:window-maximized="1"
     inkscape:current-layer="visual" />
  <defs
     id="defs11" />
  <g
     inkscape:groupmode="layer"
     id="layer2"
     inkscape:label="green" />
  <path
     d="m 0,570 c 17.376199,-0.007 29.05571,19.30336 39,20.21062 9.94429,0.90726 18,-34.22073 39,-8.62876 21,25.59197 22.54999,-2.57526 39.2,-14.89298 16.65001,-12.31772 11.95,49.66388 39.6,19.9097 27.65,-29.75418 26.19998,-5.7943 39.2,-8.12707 13.00002,-2.33277 18,-32.50837 39,-3.76255 21,28.74582 24.5,9.93813 39,-3.0602 14.5,-12.99833 26.5,-20.18728 39,4.91639 12.5,25.10367 26,-0.10033 39,3.41137 13,3.5117 26.49998,27.71402 39,15.05014 12.50002,-12.66388 31.05,-23.6689 47.7,-7.25919 16.65,16.40971 13.44999,-33.29096 31.1,-11.5535 17.65001,21.73746 26.2,-3.56186 39.2,-1.30434 13,2.25752 13.5,28.57191 39,7.92642 25.5,-20.64549 26,14.14882 39,1.40467 13,-12.74415 26.99998,18.94816 39,4.76589 12.00002,-14.18227 -2.50002,-42.71404 39,-16.55517 41.50002,26.15887 32.14906,3.31351 39,-4.51504 10.5,-11.99833 20.54997,-17.3194 39.2,2.00669 18.65003,19.32609 23.94999,15.82442 41.1,-1.74582 17.15001,-17.57024 11.2,18.76588 37.7,12.28092 26.5,-6.48496 21.89585,16.41115 39,8.77925 17.10415,-7.6319 21.10451,-19.49383 39,-19.25744 V 487.01678 H 893.5 861 822 782.8 743.2 704 665 626 587 548 509 469.8 430.2 391 352 313 274 235 196 156.8 117.2 78 39 6.5 0 Z"
     fill="#fbbf24"
     id="path6"
     style="stroke-width:0.708292"
     sodipodi:nodetypes="czzzzzzzzzzzzzzzzzszzzzcccccccccccccccccccccccccccc" />
  <rect
     style="fill:#fbbf24;stroke:#fbbf24;stroke-width:11.3386;fill-opacity:1;stroke-opacity:1"
     id="rect32"
     width="1859.3407"
     height="817.58246"
     x="-534.06592"
     y="-300" />
  <g
     inkscape:groupmode="layer"
     id="layer1"
     inkscape:label="yellow" />
</svg>
